<svg xmlns="http://www.w3.org/2000/svg" viewBox="0 0 1000 480">
  <path fill="#22c55e" fill-rule="evenodd" d="M45.2,552.7 L52.1,551.9 L57.8,555.9 L52.4,556.4 L45.2,552.7 Z M159.4,535.3 L160.0,534.1 L170.2,534.6 L166.0,536.8 L159.4,535.3 Z M146.4,534.6 L148.4,533.8 L155.5,536.0 L150.2,535.5 L146.4,534.6 Z M217.2,530.5 L215.7,529.0 L231.1,529.2 L232.8,531.3 L217.2,530.5 Z M282.7,248.8 L282.8,245.9 L280.2,243.5 L276.7,246.0 L277.8,248.7 L276.6,249.6 L268.0,245.5 L264.7,240.3 L263.6,241.6 L262.1,240.2 L261.9,236.2 L256.5,229.7 L257.0,228.4 L246.6,226.1 L237.0,218.1 L231.8,220.0 L212.5,210.7 L207.0,204.9 L207.6,199.7 L205.5,194.9 L188.3,173.1 L185.7,165.3 L181.2,163.1 L181.5,168.8 L196.0,193.5 L194.4,194.7 L188.4,188.0 L188.1,183.5 L180.4,177.5 L182.9,174.5 L179.1,171.0 L174.2,158.7 L170.8,155.2 L164.9,153.1 L154.4,133.0 L154.1,124.4 L155.8,114.6 L153.6,105.2 L158.0,105.7 L159.5,109.1 L158.8,102.4 L151.0,97.4 L146.0,95.9 L144.9,90.6 L141.3,89.1 L140.8,86.3 L133.4,79.4 L127.6,70.2 L120.5,69.8 L111.5,65.2 L91.3,60.4 L88.3,61.2 L88.8,63.6 L78.6,66.5 L79.4,61.0 L82.4,59.9 L81.6,59.0 L72.2,65.8 L74.2,67.5 L71.6,70.1 L59.9,77.7 L42.3,83.3 L61.9,72.1 L63.8,67.4 L58.2,69.1 L54.6,66.8 L50.1,68.2 L50.3,64.8 L48.6,63.6 L44.9,64.2 L40.7,61.7 L38.5,58.2 L39.6,56.2 L42.9,52.4 L53.4,50.2 L51.3,48.0 L53.4,46.6 L41.8,47.8 L33.0,43.5 L43.1,40.3 L45.4,40.3 L45.0,42.1 L50.9,41.9 L36.8,34.0 L38.3,32.2 L46.8,30.5 L50.3,27.1 L65.1,23.4 L71.3,25.8 L101.1,27.7 L120.8,32.1 L139.5,27.5 L141.4,29.0 L144.1,26.5 L150.7,30.1 L154.4,27.7 L154.8,30.4 L162.6,28.9 L183.6,33.9 L179.7,35.6 L194.6,35.4 L197.6,37.5 L200.6,35.7 L197.7,34.2 L199.5,33.0 L205.1,32.5 L218.2,36.5 L226.5,36.1 L226.2,33.9 L228.7,33.2 L233.0,34.4 L233.0,37.8 L234.8,35.0 L237.0,35.1 L238.2,31.5 L232.0,27.9 L232.2,24.0 L235.5,21.5 L239.2,22.0 L245.8,27.6 L243.3,29.3 L248.5,30.0 L248.5,33.6 L252.2,30.8 L255.5,33.1 L254.7,35.7 L257.4,38.1 L262.3,32.5 L262.4,28.6 L270.5,29.4 L274.2,31.2 L274.4,32.9 L272.3,34.8 L274.3,36.7 L273.9,38.4 L268.5,40.9 L261.8,40.4 L257.4,46.7 L248.0,50.8 L247.9,53.1 L244.6,53.5 L238.2,60.4 L237.0,67.2 L241.1,67.8 L243.6,73.8 L247.5,73.1 L263.9,80.1 L271.5,80.6 L271.9,87.3 L278.0,94.6 L281.7,89.8 L278.2,82.3 L282.7,80.7 L287.4,75.8 L285.3,70.4 L281.9,67.7 L285.2,64.0 L283.0,55.3 L294.9,54.9 L301.7,59.5 L306.7,59.8 L307.5,67.2 L312.1,69.8 L316.1,67.9 L320.6,62.3 L329.5,74.2 L328.3,76.4 L340.7,82.5 L341.8,85.5 L345.1,87.3 L345.3,91.3 L333.2,98.0 L315.6,98.0 L302.5,110.0 L309.3,104.8 L319.3,101.5 L321.7,103.3 L319.1,105.6 L320.9,112.1 L324.5,113.9 L329.1,113.3 L331.9,109.4 L333.9,113.2 L318.4,121.6 L316.3,121.3 L316.2,118.4 L321.0,115.4 L313.5,116.0 L314.0,117.1 L303.8,123.2 L303.3,125.9 L305.7,128.3 L295.3,130.8 L300.2,130.8 L294.6,131.5 L291.9,137.9 L290.2,135.9 L291.5,139.8 L289.1,143.9 L289.7,141.4 L287.9,137.1 L288.0,140.9 L286.2,140.3 L288.1,141.5 L289.6,149.8 L274.1,164.3 L274.1,169.3 L277.6,180.4 L276.7,186.3 L274.5,186.4 L273.0,184.0 L267.5,169.6 L263.6,170.7 L260.0,168.0 L251.1,168.8 L251.6,172.4 L239.3,170.4 L229.5,178.7 L230.2,184.0 L228.1,196.1 L233.6,208.8 L237.7,211.3 L246.1,208.7 L247.9,207.2 L249.2,201.2 L258.2,199.3 L258.8,201.7 L256.0,210.8 L254.7,210.0 L254.6,217.0 L253.0,219.2 L263.9,218.8 L268.3,221.4 L267.2,236.1 L271.6,243.5 L275.1,244.0 L279.0,241.4 L286.6,244.8 L289.8,242.0 L291.9,236.2 L296.1,235.7 L300.7,231.4 L302.4,232.5 L300.2,235.0 L300.8,243.3 L302.7,240.5 L301.7,236.6 L305.1,235.1 L305.7,232.4 L310.6,238.0 L316.0,237.7 L319.7,239.7 L321.3,237.7 L328.1,237.5 L325.8,238.5 L326.7,240.2 L331.0,242.2 L331.5,245.0 L335.8,247.1 L341.3,254.2 L350.1,255.0 L357.5,260.5 L359.7,268.6 L361.2,269.2 L359.2,274.5 L364.9,276.1 L365.0,279.7 L367.2,277.3 L375.3,280.8 L376.2,284.8 L379.4,283.7 L388.9,285.4 L396.6,292.3 L402.1,294.6 L403.5,301.2 L402.4,307.0 L392.6,321.4 L390.9,338.4 L386.3,352.7 L383.4,356.4 L376.0,357.7 L367.6,363.1 L365.3,366.6 L364.2,376.5 L350.5,396.7 L343.8,398.3 L337.7,395.0 L337.5,396.8 L341.0,399.8 L342.3,405.5 L339.6,410.1 L335.5,412.0 L326.8,412.3 L327.4,418.9 L325.7,420.1 L319.1,420.2 L319.5,423.7 L322.9,423.7 L323.7,425.5 L318.9,428.8 L317.9,434.3 L313.1,436.1 L312.3,438.7 L317.7,442.0 L316.7,445.2 L308.0,454.4 L310.7,460.1 L307.1,459.9 L303.2,462.0 L302.8,465.3 L291.8,459.8 L290.0,447.1 L294.1,441.0 L289.9,439.9 L292.5,436.8 L293.5,430.9 L296.6,432.2 L298.0,424.9 L296.1,423.9 L295.3,428.4 L293.5,427.9 L296.6,413.9 L295.6,406.4 L296.8,406.3 L301.6,389.7 L301.4,377.2 L303.0,372.8 L305.1,345.0 L304.5,340.1 L301.5,336.6 L288.9,327.0 L278.4,300.7 L274.3,297.0 L275.2,295.4 L273.9,292.0 L278.4,284.7 L275.1,283.2 L275.2,279.0 L277.5,272.6 L281.0,270.4 L282.1,266.0 L285.8,261.7 L284.8,251.7 L282.7,248.8 Z M67.5,208.5 L66.5,205.8 L67.1,203.8 L70.0,206.4 L67.5,208.5 Z M62.1,200.0 L60.8,200.1 L60.3,199.1 L61.0,198.6 L62.1,200.0 Z M144.3,98.8 L143.4,96.1 L150.7,97.8 L156.9,104.1 L151.0,103.0 L144.3,98.8 Z M129.9,85.2 L134.0,84.3 L133.2,88.3 L135.6,91.1 L129.9,85.2 Z M72.2,75.1 L70.4,72.5 L74.4,70.7 L77.4,72.0 L72.2,75.1 Z M39.8,62.5 L38.4,64.4 L34.8,62.8 L39.8,62.5 Z M279.8,55.9 L278.7,57.8 L276.8,56.4 L278.0,55.1 L279.8,55.9 Z M272.5,54.0 L269.3,55.9 L266.7,54.9 L268.7,53.2 L272.5,54.0 Z M23.0,50.2 L26.4,50.5 L31.4,51.9 L29.1,53.0 L23.5,51.8 L23.0,50.2 Z M277.5,50.4 L275.0,51.5 L269.1,49.1 L262.4,52.8 L261.5,50.7 L257.7,51.0 L260.1,49.3 L261.4,43.3 L277.5,50.4 Z M15.1,38.6 L22.6,39.1 L28.1,42.4 L20.8,44.3 L19.6,48.5 L10.5,44.6 L4.6,44.5 L3.0,43.3 L3.6,42.0 L0.3,42.8 L1.6,44.5 L-0.0,46.0 L-0.0,31.9 L14.1,38.1 L13.9,40.3 L15.7,41.2 L15.1,38.6 Z M227.2,27.7 L231.8,29.4 L234.3,31.4 L232.6,32.6 L222.8,30.4 L227.2,27.7 Z M198.9,17.3 L207.2,18.8 L209.8,24.7 L219.5,28.1 L219.2,29.7 L214.6,30.0 L216.4,31.3 L215.5,32.6 L205.7,31.1 L185.2,33.4 L174.1,28.4 L187.7,26.9 L172.5,26.3 L171.0,25.0 L177.4,23.6 L168.3,22.7 L172.6,18.7 L180.0,16.5 L182.9,17.2 L181.5,18.9 L187.7,17.8 L191.5,19.6 L194.7,17.8 L199.5,22.4 L200.9,20.9 L198.9,17.3 Z M-0.0,25.3 L0.4,22.7 L6.7,23.8 L3.6,25.1 L-0.0,25.3 Z M231.3,22.4 L224.1,23.5 L215.3,18.2 L221.0,18.7 L217.9,16.4 L221.2,14.7 L229.5,15.0 L230.2,16.0 L227.6,17.7 L231.8,19.2 L231.3,22.4 Z M153.0,13.1 L173.5,13.5 L179.1,16.0 L168.8,19.3 L165.4,23.4 L158.1,25.1 L150.2,21.6 L155.7,15.2 L153.0,13.1 Z M248.6,14.6 L238.1,21.1 L235.0,21.0 L233.2,17.9 L234.7,14.6 L237.5,13.6 L248.6,14.6 Z M207.3,18.5 L202.9,16.0 L202.9,16.0 L209.7,16.2 L207.3,18.5 Z M240.0,10.7 L238.5,12.0 L231.1,10.8 L236.5,8.3 L240.0,10.7 Z M204.7,10.6 L183.7,11.6 L189.4,10.0 L173.0,9.8 L179.4,5.4 L197.0,8.9 L193.1,5.5 L195.6,4.3 L198.5,4.7 L200.5,7.6 L205.9,7.2 L206.4,8.9 L204.7,10.6 Z M274.6,8.1 L278.2,10.9 L255.1,12.7 L243.3,11.2 L242.0,7.5 L239.2,5.9 L230.2,4.4 L231.3,3.0 L245.5,4.3 L247.9,5.5 L247.3,6.8 L252.3,8.4 L274.6,8.1 Z M215.3,8.6 L215.1,5.9 L226.4,4.5 L228.5,6.2 L227.3,10.6 L215.3,8.6 Z M158.7,6.7 L169.2,1.7 L177.2,1.3 L176.8,4.0 L174.7,5.2 L158.7,6.7 Z M239.7,1.3 L232.9,1.6 L232.1,0.6 L239.7,1.3 Z M193.9,1.1 L184.6,0.9 L194.9,0.0 L193.9,1.1 Z M234.6,-1.5 L229.7,0.5 L226.0,-3.1 L231.2,-2.7 L234.6,-1.5 Z M210.5,-2.4 L207.0,-4.6 L219.9,-2.8 L223.1,0.3 L207.8,-1.3 L210.5,-2.4 Z M195.4,-2.1 L192.0,-1.4 L187.4,-1.4 L190.3,-3.0 L195.4,-2.1 Z M239.0,-2.6 L241.2,-4.9 L236.2,-4.8 L231.4,-7.6 L238.0,-10.5 L236.8,-11.3 L243.3,-11.5 L256.1,-8.2 L261.6,-4.7 L252.7,-1.0 L239.0,-2.6 Z M332.9,561.2 L315.9,558.5 L328.1,559.0 L331.6,556.3 L334.5,557.8 L332.9,561.2 Z M370.8,559.7 L349.5,559.9 L350.0,558.4 L358.4,556.3 L364.8,550.8 L374.6,550.8 L378.0,552.3 L379.5,555.9 L379.6,557.7 L370.8,559.7 Z M291.6,528.2 L299.8,526.6 L300.7,520.6 L304.9,518.4 L310.2,527.3 L308.9,530.0 L302.6,531.2 L291.8,529.7 L291.6,528.2 Z M309.4,461.1 L311.8,465.4 L319.3,468.4 L318.1,470.1 L314.0,469.1 L310.7,471.6 L307.7,471.2 L299.3,467.6 L292.6,461.8 L302.5,466.1 L304.8,462.1 L309.4,461.1 Z M330.0,458.3 L337.4,455.6 L339.6,457.2 L335.0,459.5 L330.0,458.3 Z M477.8,259.9 L464.0,247.8 L458.8,236.9 L453.8,232.3 L453.6,227.3 L451.0,223.3 L453.6,220.2 L454.8,214.7 L454.8,204.4 L452.6,201.2 L455.6,191.6 L463.5,177.7 L467.5,175.9 L473.4,169.6 L472.7,165.3 L474.2,160.4 L480.8,154.9 L483.5,149.1 L494.0,151.2 L504.1,146.1 L526.4,143.5 L528.4,143.9 L528.3,145.7 L530.8,145.1 L529.4,146.8 L530.4,149.3 L528.7,156.0 L542.4,161.4 L543.7,164.6 L553.0,168.5 L555.7,165.9 L555.9,161.5 L559.8,159.4 L580.3,166.3 L586.0,163.9 L588.8,166.1 L593.8,166.0 L596.0,163.9 L600.0,153.0 L600.4,145.9 L596.4,145.4 L590.3,147.9 L588.1,146.0 L582.5,147.7 L576.8,145.9 L573.1,140.4 L574.5,137.7 L572.7,136.0 L575.8,132.6 L580.1,132.5 L581.2,129.8 L586.5,130.3 L593.1,127.0 L597.7,126.9 L606.5,130.8 L615.4,128.7 L615.1,124.8 L601.9,115.6 L606.2,112.1 L604.6,110.7 L608.7,108.5 L597.1,112.0 L597.3,114.2 L601.5,114.8 L600.9,116.1 L594.1,118.7 L592.6,118.0 L593.2,116.4 L590.1,115.3 L593.3,113.5 L592.5,112.7 L585.4,110.9 L582.3,116.3 L580.1,116.8 L576.9,125.0 L580.0,130.4 L576.7,130.6 L573.2,133.6 L572.4,131.2 L569.2,130.8 L565.9,131.7 L567.8,133.7 L566.4,134.3 L562.9,133.2 L566.8,142.4 L564.2,141.5 L565.0,143.3 L563.3,143.6 L564.3,146.7 L562.5,146.8 L560.2,145.3 L558.7,140.1 L553.9,133.2 L554.3,128.0 L544.5,121.7 L541.4,116.2 L538.8,117.2 L538.7,114.4 L536.5,113.9 L534.2,115.1 L535.0,119.7 L542.1,127.2 L544.2,127.2 L544.1,128.7 L551.3,133.5 L550.8,134.8 L546.9,132.6 L545.7,134.8 L547.7,136.1 L547.4,138.0 L544.7,141.2 L543.6,141.5 L544.7,137.8 L542.8,133.9 L533.6,128.1 L529.2,123.8 L528.3,120.3 L524.7,118.7 L518.1,123.1 L508.6,123.3 L508.4,127.4 L502.3,130.5 L499.2,136.6 L500.3,138.6 L494.0,145.9 L487.9,145.8 L485.1,148.4 L481.9,144.9 L475.3,145.2 L475.4,140.2 L473.5,138.6 L475.6,131.4 L473.9,123.4 L477.8,120.9 L494.7,122.0 L496.2,119.9 L496.7,112.9 L491.8,107.4 L487.5,106.0 L487.2,103.5 L495.5,103.6 L494.6,99.6 L497.3,101.1 L503.7,98.4 L504.6,95.5 L510.6,93.1 L513.1,87.9 L522.6,86.4 L524.4,84.6 L522.6,79.3 L523.7,73.7 L529.4,71.5 L528.5,74.5 L530.3,76.0 L526.8,79.5 L527.6,82.6 L530.4,84.7 L534.8,83.0 L539.2,85.6 L549.0,81.7 L554.6,83.2 L559.1,80.5 L558.6,74.9 L559.9,72.7 L562.6,71.5 L564.8,74.1 L567.0,74.0 L567.9,69.2 L565.1,68.4 L564.8,66.4 L577.7,65.4 L580.9,63.4 L578.0,61.8 L563.5,64.1 L559.2,61.0 L559.8,57.5 L558.5,54.3 L559.8,52.3 L570.5,45.5 L566.4,42.3 L561.6,43.3 L558.9,45.8 L559.4,48.0 L549.6,53.8 L547.6,58.8 L552.2,63.2 L549.6,67.2 L546.8,68.1 L544.1,77.3 L540.7,76.9 L539.2,79.7 L536.0,79.9 L528.8,65.4 L523.3,69.5 L519.6,70.3 L515.7,68.5 L513.9,56.6 L529.2,47.7 L541.0,36.0 L553.3,28.9 L564.0,27.5 L568.2,24.6 L578.2,24.0 L586.9,26.6 L583.4,27.6 L586.4,29.8 L589.3,28.6 L601.4,31.5 L614.1,37.2 L614.2,39.6 L606.6,42.4 L592.2,40.1 L596.7,42.7 L597.1,47.9 L602.8,49.9 L601.5,46.7 L603.3,45.4 L610.0,47.6 L612.3,46.7 L610.4,44.1 L616.9,40.7 L622.1,42.1 L623.7,39.7 L621.4,37.6 L622.7,35.5 L620.7,33.3 L628.5,34.4 L630.1,36.4 L626.5,36.8 L626.6,38.8 L628.7,40.0 L649.2,32.3 L651.3,32.4 L648.6,34.6 L663.3,32.2 L666.5,34.3 L669.7,32.0 L666.7,29.9 L668.2,28.8 L690.3,35.0 L692.2,33.1 L685.9,30.2 L686.8,28.5 L685.3,24.6 L694.3,17.5 L701.6,18.4 L702.2,20.4 L699.6,23.3 L702.2,26.9 L701.6,31.7 L704.6,33.9 L698.0,41.2 L701.2,41.7 L708.5,36.1 L706.9,34.1 L708.2,31.8 L705.1,31.5 L704.4,29.6 L706.7,26.0 L703.1,23.1 L708.0,20.7 L707.4,18.2 L710.2,20.1 L709.1,23.5 L712.1,24.2 L710.8,21.6 L715.5,20.2 L726.4,22.1 L723.9,19.1 L723.6,15.4 L741.2,14.3 L738.9,12.5 L742.1,10.2 L779.9,5.5 L783.3,2.5 L789.9,1.1 L794.6,2.2 L790.9,3.1 L797.1,3.6 L797.9,5.4 L808.5,4.5 L817.0,7.6 L816.3,9.4 L803.9,13.5 L813.9,14.2 L815.4,16.5 L821.0,15.0 L842.2,17.7 L842.4,15.0 L852.7,15.6 L857.2,17.5 L858.5,19.8 L856.8,21.2 L864.7,25.5 L867.4,21.8 L871.8,23.3 L888.5,23.0 L886.5,19.7 L890.2,18.2 L915.3,20.5 L924.9,25.3 L941.7,25.2 L944.0,26.6 L943.6,29.2 L947.1,30.2 L966.2,29.7 L971.0,32.8 L974.5,31.7 L972.2,29.5 L973.5,27.9 L988.1,28.7 L1000.0,31.9 L1000.0,46.0 L992.8,47.3 L998.3,53.0 L997.9,55.4 L992.7,54.6 L982.4,57.7 L973.1,64.0 L969.2,61.5 L961.9,64.3 L960.7,63.0 L954.3,64.0 L950.1,69.7 L953.3,71.9 L952.9,77.1 L950.4,77.2 L949.2,80.2 L950.3,81.7 L945.5,83.5 L944.5,87.5 L940.4,88.4 L939.5,92.0 L935.5,95.3 L931.8,79.8 L933.1,74.9 L935.6,71.2 L939.9,70.4 L954.6,59.5 L956.9,54.5 L953.5,54.8 L951.8,57.7 L944.8,61.6 L942.5,57.3 L935.3,58.5 L928.4,64.4 L930.7,66.6 L920.2,67.8 L920.4,65.3 L916.1,64.7 L912.6,66.5 L895.0,66.9 L875.4,82.1 L879.7,82.6 L883.8,85.6 L888.6,84.0 L892.6,87.9 L892.7,90.9 L890.6,94.4 L889.1,104.3 L883.9,111.9 L874.6,122.1 L870.9,124.2 L867.4,122.5 L861.0,127.3 L860.3,131.0 L854.3,135.0 L853.9,136.9 L859.6,145.5 L858.6,151.5 L851.3,153.9 L850.3,145.7 L852.4,145.1 L850.5,142.1 L846.4,140.8 L848.1,135.7 L845.2,134.4 L836.3,138.0 L839.4,132.6 L837.9,130.8 L830.6,136.8 L827.9,136.9 L826.5,138.6 L830.3,143.1 L832.5,144.2 L835.6,141.6 L839.9,143.1 L840.3,145.0 L836.4,145.9 L831.0,152.1 L834.0,154.0 L838.6,163.4 L838.6,166.1 L836.8,167.0 L839.1,170.0 L838.0,175.7 L836.5,176.0 L829.6,188.7 L821.9,194.9 L807.7,199.8 L806.8,203.5 L805.2,203.7 L805.2,199.8 L801.5,198.7 L794.1,205.6 L793.5,208.0 L802.4,221.4 L803.7,227.9 L803.3,234.1 L792.1,244.9 L791.9,240.3 L787.5,237.8 L785.0,232.3 L780.1,230.7 L780.5,228.0 L778.1,228.0 L775.6,242.7 L777.4,242.8 L779.1,249.1 L786.0,255.8 L789.5,270.7 L787.6,271.0 L781.6,265.6 L778.0,252.5 L773.6,245.7 L773.2,247.8 L774.3,234.9 L769.9,215.6 L764.9,219.8 L761.6,218.7 L762.0,211.0 L753.9,195.0 L751.4,194.8 L750.8,198.2 L741.6,199.4 L740.3,204.2 L736.3,206.5 L728.3,216.9 L723.1,219.2 L721.8,238.7 L715.4,247.2 L712.8,243.9 L704.3,218.9 L701.7,199.9 L695.7,201.6 L692.1,197.3 L693.5,196.1 L692.6,194.7 L687.3,190.8 L684.4,185.6 L670.8,186.8 L659.4,184.5 L656.9,179.5 L652.0,181.8 L643.1,176.9 L639.2,168.9 L633.3,169.5 L635.6,177.6 L639.3,181.1 L641.1,187.9 L641.7,183.5 L643.3,184.2 L643.9,190.5 L650.0,190.2 L656.6,182.1 L657.9,189.7 L663.1,192.1 L666.1,196.6 L660.6,203.8 L660.3,208.4 L653.5,214.5 L645.5,217.5 L644.9,220.2 L635.2,225.9 L620.8,230.7 L618.3,221.6 L618.5,216.1 L608.7,200.1 L606.9,191.7 L604.1,189.6 L597.6,176.3 L596.2,176.3 L597.0,171.2 L594.2,177.7 L590.1,169.9 L599.1,190.8 L598.7,193.8 L602.4,197.6 L604.1,209.6 L606.7,211.8 L609.1,219.1 L620.3,231.6 L618.7,233.9 L623.9,238.4 L642.0,232.9 L641.8,237.7 L632.6,260.4 L611.8,284.4 L608.9,291.8 L607.6,296.1 L609.6,299.4 L608.9,305.2 L612.4,313.3 L613.3,327.1 L611.4,332.1 L596.6,345.1 L598.8,353.3 L598.5,360.4 L590.5,366.1 L591.4,367.8 L590.2,375.2 L583.5,385.2 L578.4,391.0 L571.6,395.1 L562.7,394.8 L554.5,398.2 L551.0,395.8 L549.8,390.4 L550.6,387.0 L542.2,370.9 L539.6,353.3 L532.8,339.1 L532.3,334.1 L534.7,323.1 L537.9,317.8 L538.0,313.2 L535.8,307.6 L536.8,305.5 L533.1,293.1 L524.4,279.2 L527.2,264.4 L523.6,258.5 L516.4,260.3 L512.0,253.2 L507.5,253.2 L494.5,258.7 L487.1,257.1 L477.8,259.9 Z M637.8,132.1 L640.0,133.2 L637.7,133.5 L635.7,138.3 L636.7,142.6 L641.2,145.2 L649.5,144.8 L649.7,137.8 L647.5,136.6 L648.2,134.2 L646.4,134.0 L647.0,131.0 L652.0,130.8 L649.2,126.6 L647.0,127.5 L646.7,130.1 L645.8,124.3 L642.6,123.1 L639.7,117.8 L642.4,118.2 L642.5,115.6 L647.3,115.6 L647.3,109.9 L642.2,109.2 L636.4,111.5 L629.7,117.8 L637.8,132.1 Z M328.7,237.3 L330.8,237.0 L330.7,239.6 L327.9,239.7 L328.7,237.3 Z M287.9,211.2 L285.5,212.8 L282.4,211.0 L283.9,209.9 L287.9,211.2 Z M317.3,210.3 L317.1,211.9 L313.4,212.0 L313.6,209.9 L317.3,210.3 Z M296.7,205.0 L305.7,205.9 L310.2,209.6 L309.2,211.0 L303.7,210.3 L301.7,213.2 L299.0,211.0 L293.2,210.6 L299.1,209.4 L296.7,205.0 Z M276.1,193.7 L282.4,195.8 L294.0,203.7 L284.0,205.2 L285.9,203.2 L283.0,202.1 L281.3,199.1 L271.7,196.3 L272.8,195.4 L264.0,198.0 L268.7,194.2 L276.1,193.7 Z M284.6,191.4 L282.2,188.6 L282.8,186.3 L283.6,186.5 L284.6,191.4 Z M286.1,181.4 L285.6,184.0 L283.9,179.9 L283.9,179.9 L286.1,181.4 Z M283.8,180.6 L280.8,182.1 L280.6,180.7 L283.8,180.6 Z M321.1,110.4 L322.2,109.3 L323.2,111.0 L327.7,111.4 L325.3,113.1 L321.1,110.4 Z M351.5,101.5 L350.6,104.1 L352.5,103.5 L353.8,107.5 L352.6,110.6 L349.5,110.1 L349.3,106.8 L346.1,109.8 L344.4,109.7 L346.4,108.0 L343.7,107.2 L334.9,106.2 L340.7,96.3 L344.8,93.1 L346.1,93.2 L342.2,99.5 L344.0,98.3 L345.9,99.0 L344.9,100.3 L351.5,101.5 Z M328.2,101.3 L327.0,102.0 L320.8,99.3 L325.4,99.9 L328.2,101.3 Z M484.3,82.7 L481.1,90.8 L472.3,92.4 L474.5,88.7 L473.1,85.1 L479.0,80.7 L484.3,82.7 Z M459.7,40.7 L459.1,43.0 L462.2,45.4 L448.2,51.2 L436.8,49.6 L439.5,48.0 L433.5,46.3 L438.3,44.5 L432.4,43.7 L434.3,41.4 L438.5,40.9 L442.8,43.3 L447.1,41.4 L459.7,40.7 Z M291.1,37.3 L286.1,38.5 L285.5,36.7 L289.2,34.3 L291.4,35.3 L291.1,37.3 Z M283.8,18.5 L294.2,23.5 L299.3,22.7 L308.9,26.4 L314.0,31.1 L308.9,32.8 L328.2,39.3 L322.4,45.9 L314.7,41.0 L311.1,41.4 L310.7,43.4 L318.6,48.1 L320.4,51.6 L319.4,54.1 L309.0,50.3 L316.2,56.7 L308.7,55.3 L292.1,47.0 L284.1,48.6 L281.8,47.4 L283.6,44.8 L294.6,44.3 L294.6,41.3 L298.2,37.8 L296.4,35.1 L286.5,32.1 L288.2,31.2 L280.7,27.7 L274.2,29.1 L253.7,26.8 L251.3,25.5 L254.2,23.9 L250.3,23.9 L249.4,20.3 L254.4,15.7 L261.6,14.8 L259.6,17.1 L261.7,19.3 L264.3,16.4 L271.3,15.0 L276.1,18.6 L275.7,21.0 L283.8,18.5 Z M370.1,-16.3 L392.7,-19.6 L424.7,-19.5 L442.1,-16.7 L411.4,-14.8 L438.7,-13.2 L435.7,-11.1 L456.2,-13.8 L466.1,-11.6 L444.4,-7.7 L450.8,-7.5 L445.3,-2.6 L445.4,1.3 L448.7,3.6 L439.8,4.8 L444.9,6.7 L445.6,9.7 L442.6,10.0 L446.2,13.1 L440.0,13.3 L443.2,14.8 L442.3,16.0 L434.6,16.6 L438.1,20.5 L431.1,20.0 L438.5,23.0 L439.6,25.9 L434.6,26.6 L429.1,23.2 L430.0,25.6 L426.8,27.4 L437.9,27.8 L422.9,33.6 L411.7,34.9 L405.0,40.0 L389.4,44.3 L385.6,51.2 L381.1,54.1 L382.2,56.8 L379.5,63.2 L365.9,60.5 L356.6,50.7 L354.8,45.3 L350.9,42.0 L351.9,39.4 L350.1,38.2 L352.8,34.0 L357.0,32.7 L358.7,28.5 L351.5,30.8 L348.1,29.6 L349.0,25.3 L357.2,26.2 L344.9,22.4 L348.0,19.1 L337.3,8.8 L329.8,6.7 L309.7,6.8 L301.7,3.5 L314.5,2.2 L296.4,-0.2 L296.8,-1.5 L317.5,-4.9 L318.5,-6.2 L311.0,-7.5 L327.1,-11.7 L326.0,-13.3 L341.1,-14.8 L352.7,-13.7 L360.0,-15.7 L376.2,-12.9 L369.7,-14.8 L370.1,-16.3 Z M275.3,16.5 L276.8,15.0 L283.2,15.3 L288.2,18.3 L279.2,18.6 L275.3,16.5 Z M318.1,-12.4 L302.3,-6.3 L286.4,-4.7 L290.2,-4.2 L288.3,-3.6 L290.6,-1.9 L278.5,2.8 L283.6,4.3 L276.2,6.4 L251.4,5.4 L251.1,3.7 L256.2,2.9 L254.8,0.3 L263.9,1.6 L255.7,-1.3 L263.6,-4.7 L258.5,-7.9 L272.6,-8.7 L256.7,-8.9 L245.6,-13.7 L262.5,-16.4 L268.9,-15.3 L271.1,-17.2 L279.7,-18.1 L328.2,-16.3 L312.1,-12.4 L318.1,-12.4 Z M2.6,572.3 L15.6,573.6 L27.9,571.4 L40.7,574.3 L102.9,574.3 L73.4,570.7 L75.4,564.9 L64.3,561.5 L81.5,562.4 L93.3,558.8 L84.6,555.4 L68.5,554.3 L61.0,550.7 L60.1,546.7 L79.6,548.5 L94.2,545.2 L93.9,541.3 L97.5,540.7 L99.1,541.9 L124.4,537.5 L167.5,538.2 L183.5,535.5 L188.1,539.0 L190.9,538.0 L201.2,540.6 L220.4,541.1 L221.9,539.5 L215.2,536.9 L212.0,531.6 L232.4,535.1 L249.8,534.1 L252.1,531.4 L263.4,534.6 L273.7,535.9 L277.0,533.4 L288.3,536.4 L308.5,533.0 L313.5,529.6 L309.6,521.4 L312.3,517.2 L311.8,512.9 L313.2,511.3 L325.0,503.4 L339.4,498.6 L341.0,499.5 L327.7,504.0 L326.0,506.4 L327.4,508.9 L322.9,510.0 L317.6,515.1 L324.5,519.6 L328.3,524.9 L331.0,535.4 L321.2,540.9 L303.9,545.8 L285.4,546.0 L295.4,550.3 L283.5,551.9 L283.3,554.8 L290.7,558.6 L334.2,566.0 L338.3,569.0 L361.8,563.7 L381.1,565.0 L386.7,562.4 L420.7,558.8 L417.5,555.0 L401.0,555.7 L400.6,551.8 L419.8,545.9 L451.3,540.4 L456.4,538.2 L457.2,536.8 L454.3,536.0 L457.1,533.5 L465.9,530.8 L471.4,526.8 L479.4,528.3 L480.9,525.6 L487.9,527.5 L498.2,526.7 L499.4,528.1 L521.5,522.0 L526.5,522.4 L530.1,525.3 L537.3,522.3 L542.0,523.8 L553.5,522.0 L562.7,524.8 L575.3,524.0 L588.9,521.1 L594.1,517.1 L607.4,521.6 L651.5,507.6 L656.5,508.1 L663.2,512.8 L670.6,515.1 L677.9,513.2 L691.4,515.1 L693.5,519.6 L688.4,523.4 L691.9,524.7 L688.8,528.9 L694.1,530.3 L697.3,529.7 L705.2,521.9 L715.7,520.5 L719.8,516.4 L729.9,512.5 L741.0,512.3 L744.4,509.0 L749.1,512.3 L766.1,513.1 L777.0,512.6 L785.6,506.7 L794.9,511.5 L815.6,507.8 L821.1,510.7 L832.9,512.7 L842.3,509.9 L857.8,510.9 L874.3,509.0 L875.2,505.8 L881.8,511.6 L904.1,511.5 L907.4,514.9 L913.4,516.6 L923.6,518.4 L928.6,517.3 L948.8,524.4 L964.7,525.3 L975.6,528.3 L970.2,535.3 L961.4,537.8 L954.4,544.4 L954.1,547.3 L957.6,551.2 L963.9,553.2 L949.4,554.7 L943.9,561.0 L970.6,571.1 L1000.0,574.3 L102.9,574.3 L87.4,577.4 L40.7,574.3 L0.2,574.3 L2.6,572.3 Z M543.1,140.4 L541.9,146.1 L534.5,142.5 L534.9,140.7 L543.1,140.4 Z M525.6,129.8 L527.3,132.4 L526.9,137.0 L524.5,138.0 L522.7,130.8 L525.6,129.8 Z M525.6,129.2 L523.7,126.2 L526.1,123.5 L526.6,126.5 L525.6,129.2 Z M491.7,68.3 L488.7,72.2 L494.6,71.7 L491.3,77.7 L494.2,78.0 L501.3,88.5 L504.7,89.2 L502.9,92.4 L504.0,94.3 L485.4,99.0 L484.0,98.3 L490.5,93.8 L485.4,91.8 L488.3,90.7 L486.7,88.8 L487.3,86.5 L491.4,86.8 L491.8,84.8 L486.5,81.9 L486.0,78.4 L484.5,80.1 L482.9,74.9 L486.1,68.4 L491.7,68.3 Z M535.3,79.0 L533.6,81.9 L530.3,78.4 L534.4,77.3 L535.3,79.0 Z M559.8,-3.4 L552.9,-2.0 L547.6,4.2 L544.2,4.3 L538.2,2.2 L540.7,0.9 L531.2,-3.1 L529.0,-5.8 L547.2,-7.2 L559.8,-3.4 Z M596.0,149.4 L591.6,153.3 L589.6,151.4 L596.0,149.4 Z M565.8,149.3 L567.4,150.5 L573.0,150.7 L568.7,152.1 L565.3,150.8 L565.8,149.3 Z M568.7,0.5 L562.5,2.0 L557.6,1.1 L559.5,0.2 L557.8,-0.9 L563.6,-1.6 L568.7,0.5 Z M576.1,-7.3 L564.0,-4.9 L548.2,-8.2 L563.7,-9.4 L576.1,-7.3 Z M691.5,446.9 L695.9,448.5 L696.0,449.1 L695.2,450.7 L691.0,451.0 L691.5,446.9 Z M636.7,317.8 L639.9,330.7 L638.0,330.7 L638.3,334.9 L630.8,363.3 L626.1,365.7 L622.3,363.5 L620.1,353.1 L623.3,346.1 L622.1,336.7 L623.5,332.5 L628.6,331.0 L632.5,326.8 L636.7,317.8 Z M827.5,303.9 L830.9,306.0 L824.3,307.2 L825.2,305.1 L827.5,303.9 Z M807.7,298.1 L821.4,304.8 L818.2,306.2 L792.7,299.5 L794.6,296.1 L801.7,299.2 L807.1,299.6 L807.7,298.1 Z M793.9,296.0 L790.9,296.0 L785.0,290.2 L773.9,268.9 L764.7,256.0 L770.8,256.8 L779.6,267.9 L782.4,267.9 L788.4,274.9 L787.3,277.8 L794.7,286.1 L793.9,296.0 Z M830.5,272.1 L827.3,272.5 L826.5,278.1 L823.8,280.5 L822.6,289.5 L822.2,288.2 L819.1,289.8 L814.6,286.3 L811.3,287.6 L810.3,285.9 L806.2,285.7 L802.6,273.8 L804.6,268.2 L808.8,268.8 L809.4,265.8 L813.9,264.3 L824.2,250.9 L831.1,256.2 L825.9,263.9 L827.4,268.8 L830.5,272.1 Z M726.8,252.4 L723.2,254.2 L721.9,251.4 L722.6,240.6 L727.2,248.7 L726.8,252.4 Z M804.1,211.1 L801.8,210.0 L801.7,206.9 L807.7,204.4 L806.5,209.4 L804.1,211.1 Z M659.8,25.7 L649.1,25.5 L643.3,23.0 L642.9,21.1 L651.2,15.4 L648.6,15.0 L655.3,11.9 L654.5,10.3 L683.9,4.2 L691.3,5.1 L662.4,13.0 L653.9,19.9 L654.5,22.8 L659.8,25.7 Z M791.9,-1.1 L776.2,0.3 L776.2,0.3 L783.6,-4.8 L792.7,-2.5 L791.9,-1.1 Z M777.6,-3.1 L763.8,-3.7 L753.3,-8.3 L766.5,-11.5 L778.3,-6.3 L777.6,-3.1 Z M643.1,-9.5 L632.2,-7.1 L629.2,-7.9 L630.7,-9.0 L624.6,-9.1 L643.1,-9.5 Z M983.2,419.7 L984.0,422.7 L979.8,428.4 L980.8,430.1 L976.3,431.4 L973.9,437.3 L970.4,439.9 L963.0,438.4 L964.0,434.5 L973.7,427.2 L978.0,419.8 L980.0,418.2 L981.2,421.2 L983.2,419.7 Z M906.6,420.5 L911.9,419.6 L910.9,427.8 L905.7,429.0 L902.1,419.0 L906.6,420.5 Z M987.1,404.2 L991.0,409.0 L995.9,408.3 L994.4,413.5 L992.2,413.5 L988.9,421.0 L986.8,422.4 L985.1,421.0 L986.7,418.1 L985.8,416.2 L982.8,414.7 L984.9,412.2 L985.3,407.2 L979.5,397.2 L984.3,399.8 L987.0,406.6 L987.1,404.2 Z M901.6,325.3 L903.8,328.2 L906.6,342.2 L913.5,347.3 L915.8,354.1 L918.7,354.4 L919.2,358.1 L925.4,367.3 L926.6,374.5 L924.7,387.0 L917.6,401.2 L916.7,407.4 L906.4,413.1 L902.4,410.9 L902.9,409.1 L898.9,412.3 L890.7,409.5 L887.7,402.8 L883.7,401.0 L883.9,396.7 L880.1,399.7 L883.0,394.0 L882.8,391.4 L877.7,398.4 L875.6,397.0 L873.0,390.4 L864.8,386.5 L850.4,389.0 L845.1,391.6 L843.5,394.9 L833.0,395.2 L827.8,399.1 L824.0,398.9 L819.5,396.0 L821.4,392.7 L821.4,386.9 L814.8,367.5 L816.0,369.0 L815.1,365.7 L817.3,368.1 L815.0,361.4 L817.1,352.1 L817.3,354.8 L824.2,348.4 L835.7,344.8 L841.7,333.2 L842.9,336.2 L844.0,335.5 L843.1,333.9 L843.9,332.2 L845.2,332.9 L849.1,325.5 L853.0,324.1 L856.6,327.8 L860.1,328.1 L859.5,326.2 L862.8,319.5 L868.3,318.0 L866.2,315.1 L867.7,314.6 L875.8,318.5 L879.1,317.1 L880.4,318.9 L877.7,322.3 L876.4,328.2 L889.5,337.8 L892.4,333.1 L893.6,319.1 L895.9,312.9 L899.8,326.6 L901.6,325.3 Z M964.2,353.5 L959.6,351.8 L955.6,346.3 L958.4,347.5 L964.2,353.5 Z M995.5,336.5 L996.0,339.4 L992.7,339.4 L993.5,336.6 L995.5,336.5 Z M996.5,335.3 L996.1,334.0 L1000.0,332.0 L1000.0,333.7 L996.5,335.3 Z M966.2,333.4 L965.3,333.9 L964.5,331.4 L964.5,331.4 L966.2,333.4 Z M964.6,330.8 L963.3,330.6 L962.9,326.9 L964.2,328.0 L964.6,330.8 Z M951.1,313.5 L949.2,313.5 L948.1,311.3 L950.3,312.3 L951.1,313.5 Z M835.3,311.4 L834.2,311.5 L830.5,309.0 L833.1,308.3 L835.3,311.4 Z M843.3,311.9 L844.4,308.1 L847.5,305.8 L853.7,304.9 L843.3,311.9 Z M946.8,310.1 L944.0,309.9 L943.6,307.9 L945.5,308.5 L946.8,310.1 Z M947.0,304.7 L948.7,309.8 L946.1,304.7 L947.0,304.7 Z M841.4,303.9 L841.0,305.8 L833.1,306.4 L835.3,304.4 L841.4,303.9 Z M944.2,305.4 L942.0,303.9 L939.5,301.5 L943.4,303.6 L944.2,305.4 Z M937.6,301.2 L935.8,300.6 L934.8,298.6 L936.5,300.1 L937.6,301.2 Z M914.7,307.3 L918.6,312.6 L910.9,311.1 L905.7,303.8 L902.1,302.2 L898.0,304.4 L898.4,307.0 L896.2,308.2 L886.5,303.9 L882.3,305.0 L885.2,301.1 L883.1,294.3 L871.3,287.8 L869.4,289.8 L866.6,285.2 L871.4,283.1 L867.3,283.1 L862.6,278.6 L867.7,276.6 L872.2,278.0 L873.4,285.1 L876.3,287.2 L878.6,283.4 L884.2,281.3 L901.6,288.9 L905.5,294.6 L910.1,296.8 L910.8,298.6 L908.3,299.0 L908.9,301.4 L913.2,307.4 L914.7,307.3 Z M872.8,299.6 L872.5,297.0 L873.6,294.5 L874.2,297.2 L872.8,299.6 Z M933.4,298.4 L931.0,298.4 L929.2,293.4 L933.4,298.4 Z M922.2,294.6 L917.3,297.6 L912.0,295.6 L916.2,294.7 L917.1,292.9 L917.3,294.8 L918.9,294.5 L921.2,292.1 L920.9,290.0 L923.2,290.5 L922.2,294.6 Z M925.4,291.2 L924.5,292.1 L923.3,288.7 L918.5,285.0 L922.9,286.7 L925.4,291.2 Z M852.8,286.3 L852.4,288.7 L850.0,286.5 L852.8,286.3 Z M862.4,286.2 L863.4,288.9 L855.3,287.3 L855.9,285.3 L862.4,286.2 Z M847.9,270.3 L843.6,274.5 L833.8,274.5 L833.4,277.1 L835.9,280.3 L842.6,277.5 L837.5,282.0 L842.1,294.1 L839.5,293.9 L840.9,291.1 L837.5,291.4 L836.0,284.6 L834.2,285.6 L834.5,294.8 L831.6,294.3 L831.9,287.6 L829.9,285.2 L833.4,273.3 L835.8,270.7 L841.5,272.2 L847.9,270.3 Z M857.3,274.4 L855.9,274.0 L855.8,278.5 L853.9,271.7 L855.4,267.6 L857.2,269.9 L857.3,274.4 Z M850.6,242.5 L850.5,253.2 L849.5,249.6 L848.2,251.3 L848.3,255.6 L845.1,253.6 L845.1,249.3 L843.4,247.7 L838.7,249.9 L843.0,244.6 L844.0,246.2 L848.5,243.6 L848.4,240.8 L850.6,242.5 Z M825.5,245.8 L830.5,238.7 L832.0,235.2 L832.5,238.0 L825.5,245.8 Z M844.7,235.6 L841.7,243.5 L839.9,241.0 L841.5,236.9 L843.1,236.7 L842.6,239.0 L844.7,235.6 Z M838.6,233.3 L842.0,234.4 L838.9,238.4 L839.0,235.0 L838.6,233.3 Z M849.4,236.3 L847.3,235.4 L848.0,238.7 L846.7,239.5 L845.3,234.7 L846.9,233.7 L845.2,231.0 L847.9,231.0 L849.4,236.3 Z M836.6,227.9 L836.8,232.2 L834.2,227.8 L836.6,227.9 Z M839.6,210.1 L840.3,215.0 L838.0,219.1 L838.1,224.7 L844.3,226.6 L844.7,231.1 L841.5,227.5 L840.8,228.8 L839.0,226.6 L835.1,226.4 L836.1,224.0 L834.9,224.5 L833.1,220.9 L835.3,210.0 L839.6,210.1 Z M835.4,197.8 L833.6,192.2 L837.5,186.0 L838.8,187.1 L835.4,197.8 Z M874.0,154.8 L872.8,158.1 L871.6,157.0 L869.5,159.9 L867.7,158.9 L869.2,155.1 L874.0,154.8 Z M891.0,148.8 L886.0,152.9 L881.2,153.2 L877.2,157.2 L875.3,155.8 L875.2,153.2 L863.9,155.7 L866.7,158.3 L863.0,165.8 L861.7,164.4 L862.4,161.2 L859.5,157.8 L868.4,150.2 L876.9,149.9 L879.8,143.6 L881.6,145.3 L887.3,140.4 L889.0,136.1 L888.6,132.1 L889.7,129.9 L892.7,129.2 L894.1,137.0 L891.6,140.6 L891.0,148.8 Z M903.7,118.6 L904.3,122.6 L900.2,123.6 L897.7,127.1 L893.4,124.7 L891.9,128.5 L888.8,128.6 L888.4,125.1 L889.8,122.4 L892.7,122.2 L894.4,114.5 L899.8,119.4 L903.7,118.6 Z M901.8,102.4 L897.7,101.3 L896.0,106.4 L898.7,110.0 L898.6,112.5 L896.5,110.3 L894.7,113.1 L894.9,95.5 L893.3,92.0 L893.6,87.2 L896.1,85.5 L895.0,83.9 L896.3,83.4 L897.9,92.6 L901.8,102.4 Z M1000.0,25.3 L997.0,25.5 L996.5,24.4 L1000.0,22.9 L1000.0,25.3 Z M898.9,16.9 L894.7,16.9 L888.5,16.3 L894.6,14.6 L898.9,16.9 Z M918.7,10.3 L915.5,11.7 L905.9,10.0 L906.6,8.8 L918.7,10.3 Z M903.0,8.6 L900.8,11.2 L886.0,12.0 L880.5,9.7 L882.0,7.2 L885.6,6.6 L903.0,8.6 Z"/>
</svg>
